<svg width="32" height="32" viewBox="0 0 32 32" fill="none" xmlns="http://www.w3.org/2000/svg"><path d="M29.2016 10.6642L24.5474 7.45826L21.3408 2.80519C20.1308 1.04638 18.1341 0 16.0037 0C13.8733 0 11.8766 1.04638 10.6667 2.80519L7.45999 7.45826L2.80585 10.6642C1.05405 11.8738 0 13.8701 0 16C0 18.1299 1.04662 20.1262 2.80585 21.3358L7.45999 24.5417L10.6667 29.1948C11.8766 30.9536 13.8733 32 16.0037 32C18.1341 32 20.1308 30.9462 21.3408 29.1948L24.5177 24.5788L29.2016 21.3432C30.9534 20.1336 32 18.1373 32 16.0074C32 13.8776 30.9534 11.8813 29.1942 10.6716L29.2016 10.6642ZM22.8253 16.1336C22.3577 17.1429 21.17 16.9722 20.2199 17.1948C17.9559 17.7217 17.7184 24.0074 17.1691 25.5436C16.746 27.0278 15.254 26.8126 14.8977 25.5436C14.2668 24.0148 14.1035 18.5826 12.6857 17.551C11.9434 17.0093 10.1842 17.2839 9.5087 16.6011C8.84064 15.9258 8.81095 14.872 9.48643 14.1892L14.7864 8.89054C15.4618 8.21521 16.5604 8.21521 17.2359 8.89054L22.5358 14.1892C23.0406 14.6939 23.1222 15.4954 22.8328 16.1262L22.8253 16.1336Z" fill="url(#:R2lkjb:)"></path><defs><linearGradient id=":R2lkjb:" x1="6.65686" y1="6.6571" x2="25.3434" y2="25.3479" gradientUnits="userSpaceOnUse"><stop offset="0.18" stop-color="#5C34EA"></stop><stop offset="0.88" stop-color="#C9A0FF"></stop></linearGradient></defs></svg>